<svg xmlns="http://www.w3.org/2000/svg" viewBox="0 0 243.79 124.63"><defs><style>.cls-1{fill:#2ea6d0;}</style></defs><title>_Icon_part_logo</title><g id="Layer_2" data-name="Layer 2"><g id="Isolation_Mode" data-name="Isolation Mode"><path class="cls-1" d="M58.44,90.54c-3.63,0-7.36,0-11.2-.14C24,89.83,5.15,87.63,5,87.61a3,3,0,1,1,.7-6c.74.09,74.27,8.56,111.22-4a246.32,246.32,0,0,0,24.67-10.45c27.18-12.7,55.29-25.83,97.62-1.79a3,3,0,0,1-3,5.22c-39.64-22.52-65.13-10.6-92.12,2a254.27,254.27,0,0,1-25.28,10.69C104.68,88.11,84.4,90.54,58.44,90.54Z"/><path class="cls-1" d="M197.62,114.84c-22.37,0-50-16.87-82.45-50.34C88.67,35.88,65.67,24,46.75,29.26,17,37.46,6.49,85.69,6.38,86.17A3,3,0,1,1,.51,84.93C1,82.8,11.89,32.67,45.14,23.48,66.39,17.61,91.42,30,119.53,60.37c36.1,37.28,66.59,53.56,88.12,47,23.9-7.25,30.13-40.07,30.19-40.4a3,3,0,1,1,5.9,1.08,79.21,79.21,0,0,1-6.68,19.21c-6.69,13.45-16.26,22.39-27.67,25.85A40.18,40.18,0,0,1,197.62,114.84Z"/><path class="cls-1" d="M3,89a3,3,0,0,1-.85-5.88C2.79,83,67,63.53,117,16.63l.09-.08c18.77-16.21,36.37-20.46,53.8-13C185.79,10,198.11,23.77,210,37.12c10.66,11.93,20.73,23.21,31,27A3,3,0,0,1,239,69.76c-11.68-4.32-22.23-16.14-33.4-28.65C182.5,15.29,158.66-11.4,121,21.05,70,68.92,4.51,88.71,3.85,88.9A2.79,2.79,0,0,1,3,89Z"/><path class="cls-1" d="M123.74,124.63c-14.89,0-26.26-5.44-39.85-11.93C66,104.15,43.75,93.51,2.73,89.26a3,3,0,0,1,.62-6c42.05,4.36,64.83,15.25,83.13,24,34.49,16.48,50.23,24,152.67-42.77a3,3,0,1,1,3.28,5c-50.51,32.93-81.8,48.95-104.62,53.59A69.8,69.8,0,0,1,123.74,124.63Z"/></g></g></svg>