<svg xmlns="http://www.w3.org/2000/svg" viewBox="0 0 69.04 63.43"><defs><style>.cls-2{fill:none;stroke:#1b2435;stroke-width:1.5px;stroke-miterlimit:10}</style></defs><g id="Layer_2" data-name="Layer 2"><g id="Calque_2" data-name="Calque 2"><path d="M49.43 42.18L61.58 36c2.35-1.26 5.11-.76 6.25 1.36a4.66 4.66 0 01-2.21 6.14L40.39 57l-1.33.33-23.52.67s-3 .85-6.67 5" stroke-linejoin="round" fill="none" stroke="#1b2435" stroke-width="1.5"/><path class="cls-2" d="M.51 50.56l10.67-9.82c5.21-3.51 11.4-1.57 11.4-1.57a52 52 0 008.55 1h9.23c2.75 0 5 2 5 4.37s-2.25 4.36-5 4.36H27.59m6.94-34.04c-3.38 0-6.12-1.38-6.12-3.08s2.74-3.09 6.12-3.09c2.86 0 5.27 1 5.93 2.34m-5.93 3.84c3.38 0 6.11 1.38 6.11 3.08S37.91 21 34.53 21c-3 0-5.53-1.1-6-2.55m6.08-13.2v19.27"/><path class="cls-2" d="M9.81.75h49.43V28.8H9.81z"/></g></g></svg>