<svg xmlns="http://www.w3.org/2000/svg" viewBox="0 0 61.07 62.22"><g data-name="Layer 2"><g data-name="Calque 2" fill="none" stroke="#1b2435" stroke-miterlimit="10" stroke-width="1.5"><path d="M35.76 6.16A5.42 5.42 0 1130.34.75a5.42 5.42 0 015.42 5.41zm5.55 21.18v-4.9a4.26 4.26 0 00-4.25-4.25H24a4.28 4.28 0 00-4.25 4.27v4.9M54.77 41a5.42 5.42 0 11-5.42-5.42A5.42 5.42 0 0154.77 41zm5.55 21.2v-4.9a4.25 4.25 0 00-4.26-4.24H43a4.26 4.26 0 00-4.25 4.26v4.9M16.75 41a5.42 5.42 0 11-5.42-5.42A5.41 5.41 0 0116.75 41zm5.56 21.2v-4.9a4.26 4.26 0 00-4.26-4.24H5a4.27 4.27 0 00-4.25 4.26v4.9"/><path d="M30.55 28.69v7.63m-6.22 4.45l6.2-4.45m6.21 4.45l-6.2-4.45" stroke-linecap="round"/></g></g></svg>