<svg xmlns="http://www.w3.org/2000/svg" viewBox="0 0 21.78 17.7"><g data-name="Layer 2"><path d="M21.78 2.1a9.13 9.13 0 01-2.57.7 4.53 4.53 0 002-2.47 9 9 0 01-2.84 1.08 4.47 4.47 0 00-7.73 3.06 4.31 4.31 0 00.12 1A12.69 12.69 0 011.52.82 4.41 4.41 0 00.9 3.06a4.46 4.46 0 002 3.72 4.41 4.41 0 01-2-.56v.06a4.46 4.46 0 003.59 4.38 4.54 4.54 0 01-1.18.16 4.49 4.49 0 01-.83-.08 4.45 4.45 0 004.16 3.1 8.92 8.92 0 01-5.54 1.92A9.33 9.33 0 010 15.7a12.72 12.72 0 006.85 2A12.62 12.62 0 0019.56 5v-.59a9 9 0 002.23-2.3" fill="#edeff1" data-name="Layer 1"/></g></svg>