<svg xmlns="http://www.w3.org/2000/svg" viewBox="0 0 814 124.63"><defs><clipPath id="clip-path"><path fill="none" d="M0 0h814v125H0z"/></clipPath><style>.cls-4{fill:#243045}</style></defs><g id="Layer_2" data-name="Layer 2"><g id="Layer_1-2" data-name="Layer 1"><path d="M306.53 51.71v19.82h35.08v13.93h-35.08v27.32H289v-75h57.26v13.93zm61.6-13.93h17.53v60.86h38v14.14h-55.53zm75.34 0H461v75h-17.53zM547.6 98.85v13.93h-58.67v-75h57.26v13.93h-39.83V68h35.18v13.5h-35.18v17.35zm79.56-25.07a20 20 0 0110.18 6.8A18.66 18.66 0 01641 92.32q0 9.86-7.74 15.16t-22.57 5.3h-39.17v-75h37q13.85 0 21.27 5.25a16.57 16.57 0 017.41 14.25 18.14 18.14 0 01-2.62 9.72 18.46 18.46 0 01-7.42 6.75zM589 50.85v17.68h17.43q6.5 0 9.85-2.25a7.47 7.47 0 003.36-6.64 7.34 7.34 0 00-3.36-6.59q-3.36-2.2-9.85-2.2zm20.46 48.86q6.93 0 10.45-2.25a7.7 7.7 0 003.52-7q0-9.31-14-9.32H589v18.57zM723 98.85v13.93h-58.71v-75h57.26v13.93h-39.83V68h35.18v13.5h-35.18v17.35zm72.21 13.93l-14.66-20.89h-16.12v20.89h-17.54v-75h32.8a42.53 42.53 0 0117.48 3.32 26 26 0 0111.42 9.43 25.84 25.84 0 014 14.46 25.26 25.26 0 01-4.06 14.42A25.7 25.7 0 01797 88.67l17 24.11zM794.84 65q0-6.31-4.11-9.69t-12-3.38h-14.3v26.14h14.28q7.9 0 12-3.43t4.13-9.64z" fill-rule="evenodd" fill="#243045"/><g clip-path="url(#clip-path)"><path class="cls-4" d="M59.05 90.54c-3.62 0-7.35 0-11.2-.14-23.25-.57-42.09-2.77-42.28-2.79a3 3 0 11.7-6c.74.09 74.27 8.56 111.22-4a246.32 246.32 0 0024.67-10.45c27.18-12.7 55.29-25.83 97.63-1.79a3 3 0 01-3 5.22c-39.63-22.52-65.13-10.6-92.12 2a254.09 254.09 0 01-25.27 10.69c-14.11 4.83-34.4 7.26-60.35 7.26z"/><path class="cls-4" d="M197.62 114.84c-22.37 0-50-16.87-82.45-50.34-26.5-28.62-49.5-40.5-68.42-35.24C17 37.46 6.49 85.69 6.38 86.17a3 3 0 11-5.87-1.24C1 82.8 11.89 32.67 45.14 23.48c21.25-5.87 46.28 6.52 74.39 36.89 36.1 37.28 66.59 53.56 88.12 47 23.9-7.25 30.13-40.07 30.19-40.4a3 3 0 115.9 1.08 79.21 79.21 0 01-6.68 19.21c-6.69 13.45-16.26 22.39-27.67 25.85a40.18 40.18 0 01-11.77 1.73z"/><path class="cls-4" d="M3 89a3 3 0 01-.85-5.88C2.79 83 67 63.53 117 16.63l.09-.08c18.77-16.21 36.37-20.46 53.8-13C185.79 10 198.11 23.77 210 37.12c10.66 11.93 20.73 23.21 31 27a3 3 0 01-2 5.64c-11.68-4.32-22.23-16.14-33.4-28.65-23.1-25.82-46.94-52.51-84.6-20.06C70 68.92 4.51 88.71 3.85 88.9A2.79 2.79 0 013 89z"/><path class="cls-4" d="M123.74 124.63c-14.89 0-26.26-5.44-39.85-11.93C66 104.15 43.75 93.51 2.73 89.26a3 3 0 01.62-6c42.05 4.36 64.83 15.25 83.13 24 34.49 16.48 50.23 24 152.67-42.77a3 3 0 113.28 5c-50.51 32.93-81.8 48.95-104.62 53.59a69.8 69.8 0 01-14.07 1.55z"/></g></g></g></svg>