<svg xmlns="http://www.w3.org/2000/svg" viewBox="0 0 354.1 78.25"><g data-name="Layer 2"><g data-name="Layer 1" fill="#fff"><text transform="translate(83.67 62.8)" font-size="67.47" font-family="Raleway-Bold,Raleway" font-weight="700">FLIEBER</text><path d="M21.1 74.8h-1.75A19.38 19.38 0 011.69 47.51a19 19 0 013.9-21.13 19.18 19.18 0 016-4.08A19 19 0 0119 20.8h.56c0-.43-.05-.86-.05-1.3A19.51 19.51 0 0139.06 0H60a11.42 11.42 0 0111.42 11.41v.94A11.43 11.43 0 0160 23.77H23.07a16.61 16.61 0 0015.4 12.33h10.87a11.41 11.41 0 11-.06 22.82l-28.18-.14zM3.62 50.86A16.22 16.22 0 003 55.45a16.42 16.42 0 0015.14 16.34V58.74a19 19 0 01-14.52-7.88zM5 47.51a16 16 0 0014 8.29l30.29.2h.05a8.45 8.45 0 000-16.9h-30A16.38 16.38 0 005 47.51zm14-23.74A16 16 0 003.63 44.16a19.35 19.35 0 0115.72-8.06h9.37a20.12 20.12 0 01-3.41-2.73 19.58 19.58 0 01-4.21-6.24 19.93 19.93 0 01-1.1-3.36zm3.53-3H60a8.46 8.46 0 008.45-8.45v-.94A8.46 8.46 0 0060 3H39.06a16.56 16.56 0 00-16.54 16.5c0 .44.01.87.05 1.3z"/></g></g></svg>