<svg xmlns="http://www.w3.org/2000/svg" viewBox="0 0 69.04 63.43"><defs><style>.cls-1,.cls-2{fill:none;stroke:#1b2435;stroke-width:1.5px;}.cls-1{stroke-linejoin:round;}.cls-2{stroke-miterlimit:10;}</style></defs><title>icon_Increase_Your_Margin</title><g id="Layer_2" data-name="Layer 2"><g id="Calque_2" data-name="Calque 2"><path class="cls-1" d="M49.43,42.18,61.58,36c2.35-1.26,5.11-.76,6.25,1.36a4.66,4.66,0,0,1-2.21,6.14L40.39,57l-1.33.33L15.54,58s-3,.85-6.67,5"/><path class="cls-2" d="M.51,50.56l10.67-9.82c5.21-3.51,11.4-1.57,11.4-1.57a52,52,0,0,0,8.55,1h9.23c2.75,0,5,2,5,4.37s-2.25,4.36-5,4.36H27.59"/><path class="cls-2" d="M34.53,14.86c-3.38,0-6.12-1.38-6.12-3.08s2.74-3.09,6.12-3.09c2.86,0,5.27,1,5.93,2.34"/><path class="cls-2" d="M34.53,14.87c3.38,0,6.11,1.38,6.11,3.08S37.91,21,34.53,21c-3,0-5.53-1.1-6-2.55"/><line class="cls-2" x1="34.61" y1="5.25" x2="34.61" y2="24.52"/><rect class="cls-2" x="9.81" y="0.75" width="49.43" height="28.05"/></g></g></svg>