<svg xmlns="http://www.w3.org/2000/svg" viewBox="0 0 61.07 62.22"><defs><style>.cls-1,.cls-2{fill:none;stroke:#1b2435;stroke-miterlimit:10;stroke-width:1.5px;}.cls-2{stroke-linecap:round;}</style></defs><title>06_icon_Eliminate_Your_Headaches</title><g id="Layer_2" data-name="Layer 2"><g id="Calque_2" data-name="Calque 2"><path class="cls-1" d="M35.76,6.16A5.42,5.42,0,1,1,30.34.75,5.42,5.42,0,0,1,35.76,6.16Z"/><path class="cls-1" d="M41.31,27.34v-4.9a4.26,4.26,0,0,0-4.25-4.25H24a4.28,4.28,0,0,0-4.25,4.27v4.9"/><path class="cls-1" d="M54.77,41a5.42,5.42,0,1,1-5.42-5.42A5.42,5.42,0,0,1,54.77,41Z"/><path class="cls-1" d="M60.32,62.2V57.3a4.25,4.25,0,0,0-4.26-4.24H43a4.26,4.26,0,0,0-4.25,4.26v4.9"/><path class="cls-1" d="M16.75,41a5.42,5.42,0,1,1-5.42-5.42A5.41,5.41,0,0,1,16.75,41Z"/><path class="cls-1" d="M22.31,62.2V57.3a4.26,4.26,0,0,0-4.26-4.24H5A4.27,4.27,0,0,0,.75,57.32v4.9"/><line class="cls-2" x1="30.55" y1="28.69" x2="30.55" y2="36.32"/><line class="cls-2" x1="24.33" y1="40.77" x2="30.53" y2="36.32"/><line class="cls-2" x1="36.74" y1="40.77" x2="30.54" y2="36.32"/></g></g></svg>