<svg xmlns="http://www.w3.org/2000/svg" viewBox="0 0 21.77 21.77"><defs><style>.cls-1{fill:#edeff1;}</style></defs><title>icon_face_book</title><g id="Layer_2" data-name="Layer 2"><g id="Layer_1-2" data-name="Layer 1"><path class="cls-1" d="M20,7.64l-.21,2.79H16.88v9.66H13.29V10.43H11.36V7.64h1.93V5.78A5,5,0,0,1,13.9,2.9a3.41,3.41,0,0,1,3-1.41,12,12,0,0,1,3.45.35l-.48,2.85a6.52,6.52,0,0,0-1.55-.23c-.74,0-1.42.26-1.42,1V7.64ZM18.2,0H3.57A3.57,3.57,0,0,0,0,3.58V18.2a3.57,3.57,0,0,0,3.57,3.57H18.2a3.57,3.57,0,0,0,3.57-3.57V3.58A3.57,3.57,0,0,0,18.2,0"/></g></g></svg>