<svg xmlns="http://www.w3.org/2000/svg" viewBox="0 0 21.78 17.7"><defs><style>.cls-1{fill:#edeff1;}</style></defs><title>icon_twiter</title><g id="Layer_2" data-name="Layer 2"><g id="Layer_1-2" data-name="Layer 1"><path class="cls-1" d="M21.78,2.1a9.13,9.13,0,0,1-2.57.7,4.53,4.53,0,0,0,2-2.47,9,9,0,0,1-2.84,1.08,4.47,4.47,0,0,0-7.73,3.06,4.31,4.31,0,0,0,.12,1A12.69,12.69,0,0,1,1.52.82,4.41,4.41,0,0,0,.9,3.06a4.46,4.46,0,0,0,2,3.72,4.41,4.41,0,0,1-2-.56v.06a4.46,4.46,0,0,0,3.59,4.38,4.54,4.54,0,0,1-1.18.16,4.49,4.49,0,0,1-.83-.08,4.45,4.45,0,0,0,4.16,3.1,8.92,8.92,0,0,1-5.54,1.92A9.33,9.33,0,0,1,0,15.7a12.72,12.72,0,0,0,6.85,2A12.62,12.62,0,0,0,19.56,5c0-.2,0-.39,0-.59a9,9,0,0,0,2.23-2.3"/></g></g></svg>