<svg xmlns="http://www.w3.org/2000/svg" xmlns:xlink="http://www.w3.org/1999/xlink" viewBox="0 0 814 124.63"><defs><style>.cls-1{fill:none;}.cls-2,.cls-4{fill:#243045;}.cls-2{fill-rule:evenodd;}.cls-3{clip-path:url(#clip-path);}</style><clipPath id="clip-path"><rect class="cls-1" width="814" height="125"/></clipPath></defs><title>01_logo_Flieber_sem _rolar</title><g id="Layer_2" data-name="Layer 2"><g id="Layer_1-2" data-name="Layer 1"><path class="cls-2" d="M306.53,51.71V71.53h35.08V85.46H306.53v27.32H289v-75h57.26V51.71Zm61.6-13.93h17.53V98.64h38v14.14H368.13Zm75.34,0H461v75H443.47ZM547.6,98.85v13.93H488.93v-75h57.26V51.71H506.36V68h35.18v13.5H506.36V98.85Zm79.56-25.07a20,20,0,0,1,10.18,6.8A18.66,18.66,0,0,1,641,92.32q0,9.86-7.74,15.16t-22.57,5.3H571.52v-75h37q13.85,0,21.27,5.25a16.57,16.57,0,0,1,7.41,14.25A18.14,18.14,0,0,1,634.58,67a18.46,18.46,0,0,1-7.42,6.75ZM589,50.85V68.53h17.43q6.5,0,9.85-2.25a7.47,7.47,0,0,0,3.36-6.64,7.34,7.34,0,0,0-3.36-6.59q-3.36-2.2-9.85-2.2Zm20.46,48.86q6.93,0,10.45-2.25a7.7,7.7,0,0,0,3.52-7q0-9.31-14-9.32H589V99.71ZM723,98.85v13.93H664.29v-75h57.26V51.71H681.72V68H716.9v13.5H681.72V98.85Zm72.21,13.93L780.55,91.89H764.43v20.89H746.89v-75h32.8a42.53,42.53,0,0,1,17.48,3.32,26,26,0,0,1,11.42,9.43,25.84,25.84,0,0,1,4,14.46,25.26,25.26,0,0,1-4.06,14.42A25.7,25.7,0,0,1,797,88.67l17,24.11ZM794.84,65q0-6.31-4.11-9.69t-12-3.38H764.43V78.07h14.28q7.9,0,12-3.43T794.84,65Z"/><g class="cls-3"><path class="cls-4" d="M59.05,90.54c-3.62,0-7.35,0-11.2-.14C24.6,89.83,5.76,87.63,5.57,87.61a3,3,0,1,1,.7-6c.74.09,74.27,8.56,111.22-4a246.32,246.32,0,0,0,24.67-10.45c27.18-12.7,55.29-25.83,97.63-1.79a3,3,0,0,1-3,5.22c-39.63-22.52-65.13-10.6-92.12,2a254.09,254.09,0,0,1-25.27,10.69C105.29,88.11,85,90.54,59.05,90.54Z"/><path class="cls-4" d="M197.62,114.84c-22.37,0-50-16.87-82.45-50.34C88.67,35.88,65.67,24,46.75,29.26,17,37.46,6.49,85.69,6.38,86.17A3,3,0,1,1,.51,84.93C1,82.8,11.89,32.67,45.14,23.48,66.39,17.61,91.42,30,119.53,60.37c36.1,37.28,66.59,53.56,88.12,47,23.9-7.25,30.13-40.07,30.19-40.4a3,3,0,1,1,5.9,1.08,79.21,79.21,0,0,1-6.68,19.21c-6.69,13.45-16.26,22.39-27.67,25.85A40.18,40.18,0,0,1,197.62,114.84Z"/><path class="cls-4" d="M3,89a3,3,0,0,1-.85-5.88C2.79,83,67,63.53,117,16.63l.09-.08c18.77-16.21,36.37-20.46,53.8-13C185.79,10,198.11,23.77,210,37.12c10.66,11.93,20.73,23.21,31,27A3,3,0,0,1,239,69.76c-11.68-4.32-22.23-16.14-33.4-28.65C182.5,15.29,158.66-11.4,121,21.05,70,68.92,4.51,88.71,3.85,88.9A2.79,2.79,0,0,1,3,89Z"/><path class="cls-4" d="M123.74,124.63c-14.89,0-26.26-5.44-39.85-11.93C66,104.15,43.75,93.51,2.73,89.26a3,3,0,0,1,.62-6c42.05,4.36,64.83,15.25,83.13,24,34.49,16.48,50.23,24,152.67-42.77a3,3,0,1,1,3.28,5c-50.51,32.93-81.8,48.95-104.62,53.59A69.8,69.8,0,0,1,123.74,124.63Z"/></g></g></g></svg>