<svg xmlns="http://www.w3.org/2000/svg" viewBox="0 0 354.1 78.25"><defs><style>.cls-1{font-size:67.47px;fill:#243045;font-family:Raleway-Bold, Raleway;font-weight:700;}.cls-2{fill:#26b3d9;}</style></defs><title>02_logo_Flieber_quando _rolar</title><g id="Layer_2" data-name="Layer 2"><g id="Layer_1-2" data-name="Layer 1"><text class="cls-1" transform="translate(83.67 62.8)">FLIEBER</text><path class="cls-2" d="M21.1,74.8H19.35A19.38,19.38,0,0,1,1.69,47.51a19,19,0,0,1,3.9-21.13,19.18,19.18,0,0,1,6-4.08A19,19,0,0,1,19,20.8h.56c0-.43-.05-.86-.05-1.3A19.51,19.51,0,0,1,39.06,0H60A11.42,11.42,0,0,1,71.42,11.41v.94A11.43,11.43,0,0,1,60,23.77H23.07A16.61,16.61,0,0,0,38.47,36.1H49.34a11.41,11.41,0,1,1-.06,22.82L21.1,58.78ZM3.62,50.86A16.22,16.22,0,0,0,3,55.45,16.42,16.42,0,0,0,18.14,71.79V58.74A19,19,0,0,1,3.62,50.86ZM5,47.51A16,16,0,0,0,19,55.8L49.29,56h.05a8.45,8.45,0,0,0,0-16.9h-30A16.38,16.38,0,0,0,5,47.51ZM19,23.77A16,16,0,0,0,3.63,44.16,19.35,19.35,0,0,1,19.35,36.1h9.37a20.12,20.12,0,0,1-3.41-2.73,19.58,19.58,0,0,1-4.21-6.24A19.93,19.93,0,0,1,20,23.77Zm3.53-3H60a8.46,8.46,0,0,0,8.45-8.45v-.94A8.46,8.46,0,0,0,60,3H39.06A16.56,16.56,0,0,0,22.52,19.5C22.52,19.94,22.53,20.37,22.57,20.8Z"/></g></g></svg>